<svg width="170" height="25" viewBox="0 0 170 25" fill="none" xmlns="http://www.w3.org/2000/svg">
<path d="M167.499 3.16735V0.578857H168.286L168.749 2.34862L169.213 0.578857H170V3.16735H169.511V1.12467L168.998 3.16735H168.493L167.987 1.12467V3.16735M165.875 3.16735V1.01716H165.105V0.578857H167.167V1.01716H166.397V3.16735H165.875Z" fill="#2B2A29"/>
<path d="M69.5206 24.9917H62.9197V8.04664H69.5206V24.9917ZM36.0026 24.9917C31.9609 24.9917 28.8965 23.9663 26.8177 21.8988C24.7389 19.8478 23.7036 16.8045 23.7036 12.7936C23.7036 8.78267 24.7471 5.73933 26.826 3.67185C28.9131 1.61264 31.9775 0.578895 36.0109 0.578895H45.436V5.6649H36.8888C34.5532 5.6649 32.9713 6.00397 32.168 6.66556C31.3646 7.32716 30.9256 8.53457 30.8677 10.263H45.436V15.349H30.8677C30.9256 17.1022 31.3315 18.2931 32.0852 18.9381C32.8305 19.5749 34.4207 19.8975 36.8557 19.8975H48.8897V0.578895H73.6782C77.2644 0.578895 79.8567 1.28184 81.4469 2.67119C83.0288 4.07708 83.8322 6.35958 83.8322 9.51042V19.8975H101.606C102.815 19.8975 103.693 19.7155 104.239 19.3351C104.786 18.9547 105.068 18.3592 105.068 17.5157C105.068 16.6722 104.786 16.085 104.231 15.6963C103.668 15.3159 102.79 15.1174 101.597 15.1174H96.0235C92.719 15.1174 90.4828 14.6212 89.315 13.604C88.1555 12.5868 87.5757 10.7923 87.5757 8.21204C87.5757 5.63182 88.2797 3.65531 89.6794 2.42309C91.0874 1.1826 93.2573 0.570625 96.2058 0.570625H127.322C131.107 0.570625 134.138 1.6788 136.399 3.90341C138.66 6.12802 139.795 9.08865 139.795 12.7853C139.795 16.482 138.668 19.4343 136.416 21.6424C134.163 23.8505 131.123 24.9504 127.297 24.9504C123.471 24.9504 120.439 23.8505 118.154 21.6341C115.876 19.4178 114.741 16.4654 114.741 12.7853C114.741 11.0321 114.99 9.45253 115.503 8.03837H122.51C121.698 9.24578 121.284 10.8253 121.284 12.7853C121.284 15.0265 121.806 16.7714 122.858 18.0284C123.901 19.2855 125.376 19.914 127.256 19.914C129.136 19.914 130.585 19.2855 131.653 18.0284C132.722 16.7714 133.252 15.0347 133.252 12.7853C133.252 10.5359 132.722 8.79094 131.662 7.55045C130.602 6.30169 129.136 5.68144 127.256 5.68144H127.14C117.623 5.68144 108.215 5.64836 98.6656 5.64836C96.8103 5.64836 95.6012 5.81376 95.038 6.13629C94.4831 6.45882 94.2015 7.03771 94.2015 7.8647C94.2015 8.61727 94.4499 9.17962 94.9386 9.53523C95.4355 9.89084 96.2057 10.0645 97.2576 10.0645H103.105C105.78 10.0645 107.826 10.693 109.225 11.9335C110.633 13.1823 111.337 14.9768 111.337 17.3255C111.337 19.6742 110.716 21.4274 109.466 22.8498C108.223 24.264 106.608 24.9752 104.645 24.9752H77.3141V10.3457C77.3141 8.55938 77.0408 7.12868 76.5025 6.54979C76.0387 6.06186 75.1525 5.78068 73.8604 5.71452V5.68971H55.3912V24.9835H36.0109L36.0026 24.9917ZM11.7027 4.45749H5.2509V10.7344H11.7027C13.4503 10.7344 14.6677 10.5028 15.3469 10.0232C16.026 9.55177 16.3656 8.74132 16.3656 7.58353C16.3656 6.42574 16.0343 5.63182 15.3717 5.16044C14.7009 4.68905 13.4834 4.46576 11.7027 4.46576V4.45749ZM0 0H12.9533C15.9763 0 18.1877 0.603705 19.5956 1.81938C21.0036 3.03506 21.7076 4.93715 21.7076 7.51737C21.7076 9.43599 21.2686 10.9907 20.4073 12.2064C19.5377 13.4221 18.287 14.1995 16.6555 14.5551L22.9002 24.9917H16.9785L11.4542 15.1588H5.25918V24.9917H0V0ZM142.594 0.578895H154.744C158.413 0.578895 161.039 1.2653 162.604 2.64638C164.169 4.02746 164.956 6.30996 164.956 9.51042V24.9917H158.504V10.3043C158.504 8.47668 158.214 7.29408 157.651 6.75653C157.088 6.21072 155.953 5.94608 154.247 5.94608H149.054V25H142.594V0.578895Z" fill="#008A9F"/>
</svg>
